<svg xmlns="http://www.w3.org/2000/svg" width="1280" height="800" viewBox="0 0 1280 800" font-family="'SF Mono','Fira Code','Cascadia Code',monospace">
  <defs>
    <linearGradient id="t-fill" x1="0" y1="0" x2="0" y2="1">
      <stop offset="0%" stop-color="#00f5ff" stop-opacity="0.2"/>
      <stop offset="100%" stop-color="#00f5ff" stop-opacity="0"/>
    </linearGradient>
  </defs>
  <!-- Background -->
  <rect width="1280" height="800" fill="#060a14"/>
  <!-- Titlebar -->
  <rect width="1280" height="44" fill="#0a0e1f"/>
  <circle cx="24" cy="22" r="6" fill="#ff5f57" opacity="0.7"/>
  <circle cx="44" cy="22" r="6" fill="#febc2e" opacity="0.7"/>
  <circle cx="64" cy="22" r="6" fill="#28c840" opacity="0.7"/>
  <text x="640" y="28" font-size="13" fill="#4a7a9b" text-anchor="middle">GridWatch</text>
  <line x1="0" y1="44" x2="1280" y2="44" stroke="#1a2a4a" stroke-width="1"/>
  <!-- Sidebar -->
  <rect x="0" y="44" width="160" height="756" fill="#0a0e1f"/>
  <line x1="160" y1="44" x2="160" y2="800" stroke="#1a2a4a" stroke-width="1"/>
  <!-- Sidebar nav — Tokens active -->
  <text x="20" y="83" font-size="13" fill="#4a7a9b">Sessions</text>
  <rect x="0" y="98" width="3" height="28" fill="#ff6600"/>
  <text x="20" y="117" font-size="13" fill="#00f5ff" font-weight="bold">Tokens</text>
  <text x="20" y="151" font-size="13" fill="#4a7a9b">Activity</text>
  <text x="20" y="185" font-size="13" fill="#4a7a9b">Insights</text>
  <text x="20" y="219" font-size="13" fill="#4a7a9b">Transfer</text>
  <line x1="12" y1="720" x2="148" y2="720" stroke="#1a2a4a" stroke-width="1"/>
  <text x="20" y="745" font-size="13" fill="#4a7a9b">Settings</text>
  <text x="20" y="775" font-size="10" fill="#4a7a9b" opacity="0.5">v0.8.0</text>
  <!-- Page title -->
  <text x="196" y="90" font-size="20" fill="#00f5ff" font-weight="bold">Token Usage</text>
  <text x="196" y="112" font-size="12" fill="#4a7a9b">Last 30 days · Peak 118k tokens</text>
  <!-- Line Chart area -->
  <rect x="196" y="130" width="1048" height="280" rx="8" fill="#0a0e1f" stroke="#1a2a4a" stroke-width="1"/>
  <text x="220" y="158" font-size="13" fill="#c0e8ff">Token Utilisation Over Time</text>
  <!-- Y-axis labels -->
  <text x="220" y="190" font-size="10" fill="#4a7a9b">128k</text>
  <text x="220" y="240" font-size="10" fill="#4a7a9b">96k</text>
  <text x="220" y="290" font-size="10" fill="#4a7a9b">64k</text>
  <text x="220" y="340" font-size="10" fill="#4a7a9b">32k</text>
  <text x="220" y="390" font-size="10" fill="#4a7a9b">0</text>
  <!-- Grid lines -->
  <line x1="260" y1="186" x2="1210" y2="186" stroke="#1a2a4a" stroke-width="0.5" stroke-dasharray="4,4"/>
  <line x1="260" y1="236" x2="1210" y2="236" stroke="#1a2a4a" stroke-width="0.5" stroke-dasharray="4,4"/>
  <line x1="260" y1="286" x2="1210" y2="286" stroke="#1a2a4a" stroke-width="0.5" stroke-dasharray="4,4"/>
  <line x1="260" y1="336" x2="1210" y2="336" stroke="#1a2a4a" stroke-width="0.5" stroke-dasharray="4,4"/>
  <line x1="260" y1="386" x2="1210" y2="386" stroke="#1a2a4a" stroke-width="0.5"/>
  <!-- Line chart wave -->
  <path d="M260,350 C320,340 380,300 440,280 C500,260 540,220 600,240 C660,260 700,200 760,190 C820,180 860,230 920,210 C980,190 1020,220 1080,200 C1140,180 1170,195 1210,190" fill="none" stroke="#00f5ff" stroke-width="2.5"/>
  <!-- Area fill under the line -->
  <path d="M260,350 C320,340 380,300 440,280 C500,260 540,220 600,240 C660,260 700,200 760,190 C820,180 860,230 920,210 C980,190 1020,220 1080,200 C1140,180 1170,195 1210,190 L1210,386 L260,386 Z" fill="url(#t-fill)"/>
  <!-- Data points -->
  <circle cx="440" cy="280" r="3" fill="#00f5ff"/>
  <circle cx="600" cy="240" r="3" fill="#00f5ff"/>
  <circle cx="760" cy="190" r="3" fill="#00f5ff"/>
  <circle cx="920" cy="210" r="3" fill="#00f5ff"/>
  <circle cx="1080" cy="200" r="3" fill="#00f5ff"/>
  <!-- Bar Chart area -->
  <rect x="196" y="430" width="1048" height="340" rx="8" fill="#0a0e1f" stroke="#1a2a4a" stroke-width="1"/>
  <text x="220" y="460" font-size="13" fill="#c0e8ff">Daily Token Count</text>
  <!-- X-axis labels -->
  <text x="310" y="750" font-size="10" fill="#4a7a9b" text-anchor="middle">Mon</text>
  <text x="450" y="750" font-size="10" fill="#4a7a9b" text-anchor="middle">Tue</text>
  <text x="590" y="750" font-size="10" fill="#4a7a9b" text-anchor="middle">Wed</text>
  <text x="730" y="750" font-size="10" fill="#4a7a9b" text-anchor="middle">Thu</text>
  <text x="870" y="750" font-size="10" fill="#4a7a9b" text-anchor="middle">Fri</text>
  <text x="1010" y="750" font-size="10" fill="#4a7a9b" text-anchor="middle">Sat</text>
  <text x="1140" y="750" font-size="10" fill="#4a7a9b" text-anchor="middle">Sun</text>
  <!-- Bars -->
  <rect x="280" y="540" width="60" height="190" rx="3" fill="#0080ff" opacity="0.8"/>
  <rect x="420" y="500" width="60" height="230" rx="3" fill="#0080ff" opacity="0.8"/>
  <rect x="560" y="580" width="60" height="150" rx="3" fill="#0080ff" opacity="0.8"/>
  <rect x="700" y="490" width="60" height="240" rx="3" fill="#0080ff" opacity="0.8"/>
  <rect x="840" y="520" width="60" height="210" rx="3" fill="#0080ff" opacity="0.8"/>
  <rect x="980" y="640" width="60" height="90" rx="3" fill="#0080ff" opacity="0.5"/>
  <rect x="1110" y="670" width="60" height="60" rx="3" fill="#0080ff" opacity="0.4"/>
  <!-- Baseline -->
  <line x1="260" y1="730" x2="1210" y2="730" stroke="#1a2a4a" stroke-width="1"/>
  <!-- Outer border -->
  <rect x="0" y="0" width="1280" height="800" rx="8" fill="none" stroke="#1a2a4a" stroke-width="2"/>
</svg>
