<svg xmlns="http://www.w3.org/2000/svg" width="1280" height="800" viewBox="0 0 1280 800" font-family="'SF Mono','Fira Code','Cascadia Code',monospace">
  <!-- Background -->
  <rect width="1280" height="800" fill="#060a14"/>
  <!-- Titlebar -->
  <rect width="1280" height="44" fill="#0a0e1f"/>
  <circle cx="24" cy="22" r="6" fill="#ff5f57" opacity="0.7"/>
  <circle cx="44" cy="22" r="6" fill="#febc2e" opacity="0.7"/>
  <circle cx="64" cy="22" r="6" fill="#28c840" opacity="0.7"/>
  <text x="640" y="28" font-size="13" fill="#4a7a9b" text-anchor="middle">GridWatch</text>
  <line x1="0" y1="44" x2="1280" y2="44" stroke="#1a2a4a" stroke-width="1"/>
  <!-- Sidebar -->
  <rect x="0" y="44" width="160" height="756" fill="#0a0e1f"/>
  <line x1="160" y1="44" x2="160" y2="800" stroke="#1a2a4a" stroke-width="1"/>
  <!-- Sidebar nav — Activity active -->
  <text x="20" y="83" font-size="13" fill="#4a7a9b">Sessions</text>
  <text x="20" y="117" font-size="13" fill="#4a7a9b">Tokens</text>
  <rect x="0" y="132" width="3" height="28" fill="#ff6600"/>
  <text x="20" y="151" font-size="13" fill="#00f5ff" font-weight="bold">Activity</text>
  <text x="20" y="185" font-size="13" fill="#4a7a9b">Insights</text>
  <text x="20" y="219" font-size="13" fill="#4a7a9b">Transfer</text>
  <line x1="12" y1="720" x2="148" y2="720" stroke="#1a2a4a" stroke-width="1"/>
  <text x="20" y="745" font-size="13" fill="#4a7a9b">Settings</text>
  <text x="20" y="775" font-size="10" fill="#4a7a9b" opacity="0.5">v0.8.0</text>
  <!-- Page title -->
  <text x="196" y="90" font-size="20" fill="#00f5ff" font-weight="bold">Activity</text>
  <text x="196" y="112" font-size="12" fill="#4a7a9b">Session activity heatmap · Last 12 weeks</text>
  <!-- Heatmap panel -->
  <rect x="196" y="130" width="1048" height="320" rx="8" fill="#0a0e1f" stroke="#1a2a4a" stroke-width="1"/>
  <!-- Day labels -->
  <text x="215" y="175" font-size="10" fill="#4a7a9b">Mon</text>
  <text x="215" y="205" font-size="10" fill="#4a7a9b">Tue</text>
  <text x="215" y="235" font-size="10" fill="#4a7a9b">Wed</text>
  <text x="215" y="265" font-size="10" fill="#4a7a9b">Thu</text>
  <text x="215" y="295" font-size="10" fill="#4a7a9b">Fri</text>
  <text x="215" y="325" font-size="10" fill="#4a7a9b">Sat</text>
  <text x="215" y="355" font-size="10" fill="#4a7a9b">Sun</text>
  <!-- Heatmap grid — 12 columns (weeks) × 7 rows (days) -->
  <!-- Week 1 -->
  <rect x="260" y="163" width="22" height="22" rx="3" fill="#00f5ff" opacity="0.7"/>
  <rect x="260" y="193" width="22" height="22" rx="3" fill="#00f5ff" opacity="0.3"/>
  <rect x="260" y="223" width="22" height="22" rx="3" fill="#0080ff" opacity="0.5"/>
  <rect x="260" y="253" width="22" height="22" rx="3" fill="#1a2a4a" opacity="0.4"/>
  <rect x="260" y="283" width="22" height="22" rx="3" fill="#00f5ff" opacity="0.9"/>
  <rect x="260" y="313" width="22" height="22" rx="3" fill="#1a2a4a" opacity="0.3"/>
  <rect x="260" y="343" width="22" height="22" rx="3" fill="#1a2a4a" opacity="0.3"/>
  <!-- Week 2 -->
  <rect x="290" y="163" width="22" height="22" rx="3" fill="#0080ff" opacity="0.6"/>
  <rect x="290" y="193" width="22" height="22" rx="3" fill="#00f5ff" opacity="0.8"/>
  <rect x="290" y="223" width="22" height="22" rx="3" fill="#00f5ff" opacity="0.4"/>
  <rect x="290" y="253" width="22" height="22" rx="3" fill="#0080ff" opacity="0.7"/>
  <rect x="290" y="283" width="22" height="22" rx="3" fill="#1a2a4a" opacity="0.3"/>
  <rect x="290" y="313" width="22" height="22" rx="3" fill="#00f5ff" opacity="0.3"/>
  <rect x="290" y="343" width="22" height="22" rx="3" fill="#1a2a4a" opacity="0.3"/>
  <!-- Week 3 -->
  <rect x="320" y="163" width="22" height="22" rx="3" fill="#00f5ff" opacity="0.5"/>
  <rect x="320" y="193" width="22" height="22" rx="3" fill="#1a2a4a" opacity="0.3"/>
  <rect x="320" y="223" width="22" height="22" rx="3" fill="#00f5ff" opacity="0.9"/>
  <rect x="320" y="253" width="22" height="22" rx="3" fill="#0080ff" opacity="0.4"/>
  <rect x="320" y="283" width="22" height="22" rx="3" fill="#00f5ff" opacity="0.6"/>
  <rect x="320" y="313" width="22" height="22" rx="3" fill="#1a2a4a" opacity="0.3"/>
  <rect x="320" y="343" width="22" height="22" rx="3" fill="#0080ff" opacity="0.3"/>
  <!-- Week 4 -->
  <rect x="350" y="163" width="22" height="22" rx="3" fill="#0080ff" opacity="0.8"/>
  <rect x="350" y="193" width="22" height="22" rx="3" fill="#00f5ff" opacity="0.6"/>
  <rect x="350" y="223" width="22" height="22" rx="3" fill="#1a2a4a" opacity="0.3"/>
  <rect x="350" y="253" width="22" height="22" rx="3" fill="#00f5ff" opacity="0.7"/>
  <rect x="350" y="283" width="22" height="22" rx="3" fill="#0080ff" opacity="0.5"/>
  <rect x="350" y="313" width="22" height="22" rx="3" fill="#00f5ff" opacity="0.4"/>
  <rect x="350" y="343" width="22" height="22" rx="3" fill="#1a2a4a" opacity="0.3"/>
  <!-- Week 5 -->
  <rect x="380" y="163" width="22" height="22" rx="3" fill="#1a2a4a" opacity="0.3"/>
  <rect x="380" y="193" width="22" height="22" rx="3" fill="#00f5ff" opacity="0.5"/>
  <rect x="380" y="223" width="22" height="22" rx="3" fill="#0080ff" opacity="0.9"/>
  <rect x="380" y="253" width="22" height="22" rx="3" fill="#00f5ff" opacity="0.3"/>
  <rect x="380" y="283" width="22" height="22" rx="3" fill="#1a2a4a" opacity="0.3"/>
  <rect x="380" y="313" width="22" height="22" rx="3" fill="#0080ff" opacity="0.6"/>
  <rect x="380" y="343" width="22" height="22" rx="3" fill="#1a2a4a" opacity="0.3"/>
  <!-- Weeks 6-12 (more sparse) -->
  <rect x="410" y="163" width="22" height="22" rx="3" fill="#00f5ff" opacity="0.4"/>
  <rect x="410" y="193" width="22" height="22" rx="3" fill="#0080ff" opacity="0.7"/>
  <rect x="410" y="223" width="22" height="22" rx="3" fill="#1a2a4a" opacity="0.3"/>
  <rect x="410" y="253" width="22" height="22" rx="3" fill="#00f5ff" opacity="0.8"/>
  <rect x="410" y="283" width="22" height="22" rx="3" fill="#00f5ff" opacity="0.5"/>
  <rect x="410" y="313" width="22" height="22" rx="3" fill="#1a2a4a" opacity="0.3"/>
  <rect x="410" y="343" width="22" height="22" rx="3" fill="#1a2a4a" opacity="0.3"/>
  <rect x="440" y="163" width="22" height="22" rx="3" fill="#0080ff" opacity="0.5"/>
  <rect x="440" y="193" width="22" height="22" rx="3" fill="#1a2a4a" opacity="0.3"/>
  <rect x="440" y="223" width="22" height="22" rx="3" fill="#00f5ff" opacity="0.6"/>
  <rect x="440" y="253" width="22" height="22" rx="3" fill="#1a2a4a" opacity="0.3"/>
  <rect x="440" y="283" width="22" height="22" rx="3" fill="#0080ff" opacity="0.8"/>
  <rect x="440" y="313" width="22" height="22" rx="3" fill="#00f5ff" opacity="0.3"/>
  <rect x="440" y="343" width="22" height="22" rx="3" fill="#1a2a4a" opacity="0.3"/>
  <rect x="470" y="163" width="22" height="22" rx="3" fill="#00f5ff" opacity="0.9"/>
  <rect x="470" y="193" width="22" height="22" rx="3" fill="#00f5ff" opacity="0.4"/>
  <rect x="470" y="223" width="22" height="22" rx="3" fill="#0080ff" opacity="0.3"/>
  <rect x="470" y="253" width="22" height="22" rx="3" fill="#00f5ff" opacity="0.6"/>
  <rect x="470" y="283" width="22" height="22" rx="3" fill="#1a2a4a" opacity="0.3"/>
  <rect x="470" y="313" width="22" height="22" rx="3" fill="#1a2a4a" opacity="0.3"/>
  <rect x="470" y="343" width="22" height="22" rx="3" fill="#0080ff" opacity="0.5"/>
  <rect x="500" y="163" width="22" height="22" rx="3" fill="#1a2a4a" opacity="0.3"/>
  <rect x="500" y="193" width="22" height="22" rx="3" fill="#00f5ff" opacity="0.7"/>
  <rect x="500" y="223" width="22" height="22" rx="3" fill="#00f5ff" opacity="0.5"/>
  <rect x="500" y="253" width="22" height="22" rx="3" fill="#1a2a4a" opacity="0.3"/>
  <rect x="500" y="283" width="22" height="22" rx="3" fill="#0080ff" opacity="0.6"/>
  <rect x="500" y="313" width="22" height="22" rx="3" fill="#00f5ff" opacity="0.4"/>
  <rect x="500" y="343" width="22" height="22" rx="3" fill="#1a2a4a" opacity="0.3"/>
  <rect x="530" y="163" width="22" height="22" rx="3" fill="#0080ff" opacity="0.7"/>
  <rect x="530" y="193" width="22" height="22" rx="3" fill="#1a2a4a" opacity="0.3"/>
  <rect x="530" y="223" width="22" height="22" rx="3" fill="#00f5ff" opacity="0.8"/>
  <rect x="530" y="253" width="22" height="22" rx="3" fill="#00f5ff" opacity="0.4"/>
  <rect x="530" y="283" width="22" height="22" rx="3" fill="#1a2a4a" opacity="0.3"/>
  <rect x="530" y="313" width="22" height="22" rx="3" fill="#0080ff" opacity="0.5"/>
  <rect x="530" y="343" width="22" height="22" rx="3" fill="#1a2a4a" opacity="0.3"/>
  <rect x="560" y="163" width="22" height="22" rx="3" fill="#00f5ff" opacity="0.3"/>
  <rect x="560" y="193" width="22" height="22" rx="3" fill="#0080ff" opacity="0.6"/>
  <rect x="560" y="223" width="22" height="22" rx="3" fill="#1a2a4a" opacity="0.3"/>
  <rect x="560" y="253" width="22" height="22" rx="3" fill="#00f5ff" opacity="0.9"/>
  <rect x="560" y="283" width="22" height="22" rx="3" fill="#00f5ff" opacity="0.5"/>
  <rect x="560" y="313" width="22" height="22" rx="3" fill="#1a2a4a" opacity="0.3"/>
  <rect x="560" y="343" width="22" height="22" rx="3" fill="#0080ff" opacity="0.4"/>
  <rect x="590" y="163" width="22" height="22" rx="3" fill="#0080ff" opacity="0.4"/>
  <rect x="590" y="193" width="22" height="22" rx="3" fill="#00f5ff" opacity="0.5"/>
  <rect x="590" y="223" width="22" height="22" rx="3" fill="#00f5ff" opacity="0.7"/>
  <rect x="590" y="253" width="22" height="22" rx="3" fill="#1a2a4a" opacity="0.3"/>
  <rect x="590" y="283" width="22" height="22" rx="3" fill="#0080ff" opacity="0.8"/>
  <rect x="590" y="313" width="22" height="22" rx="3" fill="#00f5ff" opacity="0.3"/>
  <rect x="590" y="343" width="22" height="22" rx="3" fill="#1a2a4a" opacity="0.3"/>
  <!-- Heatmap legend -->
  <text x="900" y="420" font-size="10" fill="#4a7a9b">Less</text>
  <rect x="930" y="408" width="16" height="16" rx="2" fill="#1a2a4a" opacity="0.4"/>
  <rect x="952" y="408" width="16" height="16" rx="2" fill="#00f5ff" opacity="0.3"/>
  <rect x="974" y="408" width="16" height="16" rx="2" fill="#00f5ff" opacity="0.6"/>
  <rect x="996" y="408" width="16" height="16" rx="2" fill="#00f5ff" opacity="0.9"/>
  <text x="1020" y="420" font-size="10" fill="#4a7a9b">More</text>
  <!-- Top Repos panel -->
  <rect x="196" y="470" width="1048" height="300" rx="8" fill="#0a0e1f" stroke="#1a2a4a" stroke-width="1"/>
  <text x="220" y="500" font-size="14" fill="#c0e8ff" font-weight="bold">Top Repositories</text>
  <!-- Repo rows -->
  <text x="220" y="540" font-size="13" fill="#00f5ff">faesel/gridwatch</text>
  <rect x="500" y="527" width="400" height="16" rx="3" fill="#0080ff" opacity="0.7"/>
  <text x="920" y="540" font-size="12" fill="#4a7a9b">42 sessions</text>
  <text x="220" y="580" font-size="13" fill="#00f5ff">faesel/copilot-api</text>
  <rect x="500" y="567" width="280" height="16" rx="3" fill="#0080ff" opacity="0.5"/>
  <text x="800" y="580" font-size="12" fill="#4a7a9b">28 sessions</text>
  <text x="220" y="620" font-size="13" fill="#00f5ff">faesel/dotfiles</text>
  <rect x="500" y="607" width="140" height="16" rx="3" fill="#0080ff" opacity="0.4"/>
  <text x="660" y="620" font-size="12" fill="#4a7a9b">14 sessions</text>
  <text x="220" y="660" font-size="13" fill="#00f5ff">faesel/blog</text>
  <rect x="500" y="647" width="80" height="16" rx="3" fill="#0080ff" opacity="0.3"/>
  <text x="600" y="660" font-size="12" fill="#4a7a9b">8 sessions</text>
  <!-- Outer border -->
  <rect x="0" y="0" width="1280" height="800" rx="8" fill="none" stroke="#1a2a4a" stroke-width="2"/>
</svg>
